<svg width="550" height="390" viewBox="0 0 550 390" fill="none" xmlns="http://www.w3.org/2000/svg">
<rect width="550" height="390" rx="30" fill="white"/>
<g clip-path="url(#clip0)">
<path d="M182.712 256.418C173.911 249.098 163.754 245.438 152.239 245.438C143.438 245.438 135.357 247.679 127.996 252.162C120.635 256.644 114.795 262.669 110.477 270.236C106.159 277.803 104 285.987 104 294.787C104 303.588 106.18 311.792 110.539 319.4C114.898 327.008 120.779 333.053 128.181 337.536C135.583 342.019 143.603 344.26 152.239 344.26C165.399 344.26 175.515 340.723 182.589 333.65C183.164 332.992 183.452 332.128 183.452 331.059C183.452 329.99 183.062 329.085 182.28 328.345C181.499 327.604 180.615 327.234 179.628 327.234C178.97 327.234 178.353 327.44 177.777 327.851C170.457 333.855 161.944 336.857 152.239 336.857C144.919 336.857 138.113 334.966 131.821 331.182C125.529 327.399 120.553 322.279 116.892 315.822C113.232 309.366 111.402 302.354 111.402 294.787C111.402 287.467 113.253 280.579 116.954 274.122C120.655 267.666 125.652 262.505 131.944 258.639C138.236 254.773 145.001 252.84 152.239 252.84C162.52 252.84 170.786 255.637 177.037 261.23C178.188 262.217 179.216 262.71 180.121 262.71C181.273 262.71 182.177 262.32 182.835 261.538C183.493 260.757 183.822 259.873 183.822 258.886C183.822 257.816 183.452 256.994 182.712 256.418Z" fill="#232323"/>
<path d="M264.779 337.289C264.08 336.672 263.196 336.364 262.127 336.364H211.42V250.373C211.42 249.304 211.071 248.42 210.372 247.72C209.672 247.021 208.788 246.672 207.719 246.672C206.732 246.672 205.868 247.021 205.128 247.72C204.388 248.42 204.018 249.304 204.018 250.373V339.325C204.018 340.394 204.388 341.278 205.128 341.977C205.868 342.677 206.732 343.026 207.719 343.026H262.127C263.196 343.026 264.08 342.718 264.779 342.101C265.478 341.484 265.828 340.682 265.828 339.695C265.828 338.708 265.478 337.906 264.779 337.289Z" fill="#232323"/>
<path d="M282.756 247.659C282.056 248.317 281.707 249.221 281.707 250.373V311.566C281.707 318.064 283.27 323.842 286.395 328.9C289.52 333.958 293.9 337.906 299.534 340.744C305.168 343.581 311.563 345 318.719 345C325.874 345 332.269 343.581 337.903 340.744C343.537 337.906 347.938 333.958 351.104 328.9C354.271 323.842 355.854 318.064 355.854 311.566V250.373C355.854 249.221 355.525 248.317 354.867 247.659C354.209 247.001 353.304 246.672 352.153 246.672C351.084 246.672 350.199 247.001 349.5 247.659C348.801 248.317 348.452 249.221 348.452 250.373V311.566C348.452 316.583 347.177 321.066 344.627 325.014C342.077 328.962 338.561 332.046 334.079 334.267C329.596 336.487 324.476 337.598 318.719 337.598C312.961 337.598 307.841 336.487 303.359 334.267C298.876 332.046 295.381 328.962 292.872 325.014C290.364 321.066 289.109 316.583 289.109 311.566V250.373C289.109 249.221 288.78 248.317 288.122 247.659C287.464 247.001 286.56 246.672 285.408 246.672C284.339 246.672 283.455 247.001 282.756 247.659Z" fill="#232323"/>
<path d="M427.496 249.694C423.63 247.679 419.436 246.672 414.912 246.672H384.686C383.616 246.672 382.732 247.001 382.033 247.659C381.334 248.317 380.984 249.221 380.984 250.373V339.325C380.984 340.559 381.416 341.484 382.28 342.101C383.144 342.718 384.316 343.026 385.796 343.026H416.763C422.191 343.026 427.064 341.833 431.382 339.448C435.7 337.063 439.073 333.753 441.499 329.517C443.925 325.281 445.138 320.449 445.138 315.02C445.138 308.769 443.473 303.526 440.142 299.29C436.811 295.055 432.266 292.155 426.509 290.593C430.622 288.783 433.911 286.048 436.379 282.388C438.846 278.728 440.08 274.595 440.08 269.989C440.08 265.548 438.949 261.559 436.687 258.022C434.426 254.485 431.362 251.709 427.496 249.694ZM427.743 282.573C424.453 285.781 420.176 287.385 414.912 287.385H388.387V254.074H414.912C420.258 254.074 424.556 255.472 427.805 258.269C431.053 261.065 432.678 264.972 432.678 269.989C432.678 275.171 431.033 279.366 427.743 282.573ZM427.558 332.971C424.391 334.74 420.793 335.624 416.763 335.624H388.387V294.787H416.763C420.793 294.787 424.391 295.651 427.558 297.378C430.724 299.105 433.212 301.511 435.022 304.595C436.831 307.68 437.736 311.155 437.736 315.02C437.736 318.968 436.831 322.505 435.022 325.63C433.212 328.756 430.724 331.203 427.558 332.971Z" fill="#232323"/>
<path d="M278.547 140.084C277.189 136.203 276.025 132.322 274.666 127.665H274.084C273.308 131.546 271.756 135.815 270.397 139.696L258.754 172.878H247.888L268.651 119.903C269.039 118.545 269.427 117.768 269.427 117.186C269.427 116.41 269.233 115.44 268.651 114.082C264.964 103.991 260.695 96.0349 253.709 96.0349C253.127 96.0349 252.351 96.0349 251.769 96.229L252.545 88.0789C253.515 87.6908 255.067 87.6908 256.62 87.6908C267.875 87.6908 273.114 98.5576 279.324 114.858L301.251 173.073H290.19L278.547 140.084V140.084Z" fill="#232323"/>
<path d="M335.598 215.569H213.541C200.151 215.569 189.285 204.703 189.285 191.313V69.2562C189.285 55.8668 200.151 45 213.541 45H335.598C348.987 45 359.854 55.8668 359.854 69.2562V191.313C359.854 204.703 348.987 215.569 335.598 215.569ZM213.541 46.9405C201.316 46.9405 191.225 57.0311 191.225 69.2562V191.313C191.225 203.538 201.316 213.629 213.541 213.629H335.598C347.823 213.629 357.914 203.538 357.914 191.313V69.2562C357.914 57.0311 348.017 46.9405 335.598 46.9405H213.541Z" fill="#232323"/>
</g>
<defs>
<clipPath id="clip0">
<rect width="341.139" height="300" fill="white" transform="translate(104 45)"/>
</clipPath>
</defs>
</svg>
